<?xml version="1.0" encoding="utf-8"?>
<!-- Generator: Adobe Illustrator 19.2.0, SVG Export Plug-In . SVG Version: 6.00 Build 0)  -->
<svg version="1.1" id="Layer_1" xmlns="http://www.w3.org/2000/svg" xmlns:xlink="http://www.w3.org/1999/xlink" x="0px" y="0px"
	 viewBox="0 0 354.5 152.5" style="enable-background:new 0 0 354.5 152.5;" xml:space="preserve">
<style type="text/css">
	.st0{fill:#333333;}
	.st1{fill:#C1275A;}
	.st2{fill:#9B1B4C;}
</style>
<g>
	<path class="st0" d="M149.5,38.8c2.7,1.4,4.8,3.4,6.3,6s2.3,5.6,2.3,9s-0.8,6.4-2.3,9c-1.5,2.6-3.6,4.6-6.3,6.1
		c-2.7,1.4-5.9,2.2-9.4,2.2c-3.6,0-6.7-0.7-9.5-2.2c-2.7-1.4-4.8-3.5-6.3-6.1s-2.3-5.6-2.3-9s0.8-6.4,2.3-9s3.6-4.6,6.3-6
		c2.7-1.4,5.9-2.1,9.5-2.1C143.6,36.7,146.8,37.4,149.5,38.8z M134,47.3c-1.6,1.7-2.3,3.9-2.3,6.7s0.8,5,2.3,6.7
		c1.6,1.7,3.6,2.6,6.1,2.6s4.5-0.9,6-2.6c1.6-1.7,2.3-3.9,2.3-6.7s-0.8-5-2.3-6.7c-1.6-1.7-3.6-2.6-6-2.6
		C137.6,44.7,135.6,45.6,134,47.3z"/>
	<path class="st0" d="M178.7,38.3c1.9-1.1,4.1-1.6,6.6-1.7v9.1c-0.3,0-0.8-0.1-1.5-0.1c-3,0-5.3,0.8-7,2.4c-1.7,1.6-2.6,3.7-2.6,6.4
		v16.2h-9.6V37h9.6v6.1C175.3,41,176.8,39.4,178.7,38.3z"/>
	<path class="st0" d="M199,23.6c1,1,1.5,2.3,1.5,3.9s-0.5,2.9-1.5,3.9c-1,1-2.2,1.5-3.8,1.5c-1.5,0-2.7-0.5-3.7-1.5
		s-1.5-2.3-1.5-3.8c0-1.6,0.5-2.9,1.5-3.9s2.2-1.5,3.7-1.5C196.8,22.1,198.1,22.6,199,23.6z M190.5,37h9.6v33.7h-9.6V37z"/>
	<path class="st0" d="M225.1,44.5c-1.8-0.6-3.4-0.8-4.8-0.8c-1.2,0-2.1,0.2-2.8,0.6c-0.7,0.4-1.1,1-1.1,1.9s0.5,1.6,1.4,2.1
		c1,0.5,2.5,1.1,4.7,1.7c2.4,0.7,4.3,1.4,5.9,2.1c1.5,0.7,2.9,1.7,4,3.1c1.1,1.4,1.7,3.1,1.7,5.3c0,3.3-1.3,5.9-3.8,7.8
		c-2.6,1.9-5.8,2.8-9.9,2.8c-2.8,0-5.4-0.4-7.9-1.2c-2.5-0.8-4.8-2-6.6-3.5l3.1-6.5c1.7,1.3,3.6,2.4,5.7,3.1c2.1,0.7,4.1,1.1,6,1.1
		c1.3,0,2.3-0.2,3.1-0.7c0.8-0.4,1.2-1.1,1.2-2c0-1-0.5-1.7-1.5-2.3c-1-0.5-2.6-1.1-4.7-1.8c-2.3-0.7-4.2-1.3-5.7-2s-2.8-1.7-3.9-3
		c-1.1-1.4-1.6-3.1-1.6-5.3c0-3.3,1.3-5.9,3.8-7.8c2.5-1.8,5.7-2.8,9.5-2.8c2.3,0,4.6,0.3,6.9,1c2.3,0.6,4.4,1.6,6.3,2.8l-3.3,6.6
		C228.8,45.9,226.9,45.1,225.1,44.5z"/>
	<path class="st0" d="M265.2,38.8c2.7,1.4,4.8,3.4,6.3,6s2.3,5.6,2.3,9s-0.8,6.4-2.3,9c-1.5,2.6-3.6,4.6-6.3,6.1
		c-2.7,1.4-5.9,2.2-9.4,2.2c-3.6,0-6.7-0.7-9.5-2.2c-2.7-1.4-4.8-3.5-6.3-6.1s-2.3-5.6-2.3-9s0.8-6.4,2.3-9s3.6-4.6,6.3-6
		s5.9-2.1,9.5-2.1C259.3,36.7,262.5,37.4,265.2,38.8z M249.7,47.3c-1.6,1.7-2.3,3.9-2.3,6.7s0.8,5,2.3,6.7c1.6,1.7,3.6,2.6,6.1,2.6
		c2.5,0,4.5-0.9,6-2.6c1.6-1.7,2.3-3.9,2.3-6.7s-0.8-5-2.3-6.7c-1.6-1.7-3.6-2.6-6-2.6C253.3,44.7,251.3,45.6,249.7,47.3z"/>
	<path class="st0" d="M310.4,40.1c2.2,2.3,3.3,5.5,3.3,9.4v21.1h-9.6V52.3c0-2.1-0.6-3.8-1.8-5c-1.2-1.2-2.8-1.8-4.8-1.8
		c-2.4,0-4.3,0.9-5.6,2.5c-1.4,1.6-2.1,3.7-2.1,6.2v16.6h-9.6V37h9.6v5.9c2.3-4.1,6.2-6.2,11.6-6.3
		C305.2,36.6,308.2,37.8,310.4,40.1z"/>
	<path class="st0" d="M337.9,44.5c-1.8-0.6-3.4-0.8-4.8-0.8c-1.2,0-2.1,0.2-2.8,0.6c-0.7,0.4-1.1,1-1.1,1.9s0.5,1.6,1.4,2.1
		c1,0.5,2.5,1.1,4.7,1.7c2.4,0.7,4.3,1.4,5.9,2.1c1.5,0.7,2.9,1.7,4,3.1c1.1,1.4,1.7,3.1,1.7,5.3c0,3.3-1.3,5.9-3.8,7.8
		s-5.8,2.8-9.9,2.8c-2.8,0-5.4-0.4-7.9-1.2c-2.5-0.8-4.8-2-6.6-3.5l3.1-6.5c1.7,1.3,3.6,2.4,5.7,3.1c2.1,0.7,4.1,1.1,6,1.1
		c1.3,0,2.3-0.2,3.1-0.7c0.8-0.4,1.2-1.1,1.2-2c0-1-0.5-1.7-1.5-2.3c-1-0.5-2.6-1.1-4.7-1.8c-2.3-0.7-4.2-1.3-5.7-2s-2.8-1.7-3.9-3
		c-1.1-1.4-1.6-3.1-1.6-5.3c0-3.3,1.3-5.9,3.8-7.8c2.5-1.8,5.7-2.8,9.5-2.8c2.3,0,4.6,0.3,6.9,1c2.3,0.6,4.4,1.6,6.3,2.8l-3.3,6.6
		C341.5,45.9,339.7,45.1,337.9,44.5z"/>
</g>
<g>
	<path class="st0" d="M144.8,116.6l-7.5-11.4c-1.1,0.1-1.9,0.1-2.4,0.1h-9.6v11.3h-3.4V81.8h13c4.3,0,7.7,1,10.1,3
		c2.4,2,3.6,4.9,3.6,8.5c0,2.9-0.7,5.3-2.1,7.2c-1.4,1.9-3.4,3.3-6,4l8.4,12L144.8,116.6L144.8,116.6z M134.9,102.3
		c3.3,0,5.9-0.8,7.7-2.3s2.7-3.7,2.7-6.5s-0.9-4.9-2.7-6.4s-4.3-2.2-7.7-2.2h-9.6v17.4H134.9z"/>
	<path class="st0" d="M176.7,94.3c2.1,2.6,3.1,6,2.9,10.4h-21.8c0.2,2.8,1.3,5,3.1,6.7s4.1,2.6,6.8,2.6c1.7,0,3.2-0.3,4.6-0.9
		c1.4-0.6,2.7-1.4,3.7-2.5l1.9,1.9c-1.3,1.4-2.8,2.4-4.6,3.2c-1.8,0.7-3.7,1.1-5.9,1.1c-2.5,0-4.8-0.6-6.7-1.7
		c-2-1.1-3.5-2.7-4.6-4.7s-1.7-4.3-1.7-6.8s0.6-4.8,1.7-6.8c1.1-2,2.6-3.6,4.6-4.7s4.2-1.7,6.6-1.7
		C171.5,90.4,174.6,91.7,176.7,94.3z M176.7,102.1c-0.2-2.7-1.1-4.9-2.7-6.5c-1.6-1.6-3.8-2.4-6.4-2.4c-2.6,0-4.8,0.8-6.6,2.4
		s-2.8,3.8-3,6.5H176.7z"/>
	<path class="st0" d="M182.1,90.5h3.9l7.3,10.4l7.3-10.4h3.7l-8.9,12.6l9.5,13.4H201l-7.8-11.2l-8,11.2h-3.8l9.6-13.4L182.1,90.5z"
		/>
	<path class="st0" d="M222.9,114c-1.7,1.8-4.1,2.7-7.1,2.7c-1.9,0-3.6-0.4-5.2-1.3c-1.6-0.8-3-2.1-4.2-3.7l1.7-2.6
		c1.1,1.4,2.3,2.4,3.6,3.1s2.7,1.1,4.1,1.1c2,0,3.6-0.6,4.7-1.8c1.1-1.2,1.6-3,1.6-5.3V84.9h-12.5v-3.1h16v24.6
		C225.5,109.7,224.6,112.2,222.9,114z"/>
	<path class="st0" d="M250.2,85.4c-1.7-0.5-3.3-0.7-4.8-0.7c-2.4,0-4.3,0.5-5.8,1.4c-1.4,0.9-2.2,2.2-2.2,3.9c0,1.4,0.4,2.6,1.2,3.5
		s1.8,1.6,2.9,2.1c1.2,0.5,2.8,1.1,4.8,1.7c2.4,0.7,4.3,1.4,5.7,2.1s2.7,1.7,3.7,3s1.5,3,1.5,5.1c0,1.9-0.5,3.5-1.6,4.9
		c-1,1.4-2.5,2.5-4.4,3.3s-4.1,1.2-6.5,1.2s-4.8-0.5-7.1-1.4c-2.3-1-4.3-2.2-6-3.8l1.6-2.8c1.6,1.5,3.4,2.7,5.4,3.6
		c2.1,0.9,4.1,1.3,6.1,1.3c2.7,0,4.8-0.5,6.3-1.6c1.6-1.1,2.3-2.5,2.3-4.4c0-1.5-0.4-2.7-1.2-3.6s-1.8-1.6-2.9-2.1
		c-1.2-0.5-2.8-1.1-4.9-1.7c-2.4-0.7-4.2-1.4-5.7-2.1c-1.4-0.6-2.6-1.6-3.6-2.9s-1.5-2.9-1.5-5c0-1.8,0.5-3.3,1.5-4.6
		c1-1.3,2.4-2.3,4.2-3.1c1.8-0.7,3.9-1.1,6.2-1.1c1.9,0,3.8,0.3,5.7,0.8c1.9,0.6,3.6,1.3,5.1,2.2l-1.5,2.9
		C253.5,86.6,251.9,85.9,250.2,85.4z"/>
</g>
<path class="st1" d="M34.9,9.1L9.8,39.3c-1.4,1.7-3,3-3,5.6c0,3.5,2.9,5.6,5.6,5.6h16.9V90c0,3.1,2.5,5.6,5.6,5.6h11.3
	c3.1,0,5.6-2.5,5.6-5.6V50.6h16.9c2.7,0,5.6-2.1,5.6-5.6c0-2.6-1.6-3.9-3-5.6L46.1,9.1c-1.8-2.2-3.1-3.5-5.6-3.5S36.7,6.9,34.9,9.1z
	"/>
<path class="st2" d="M75.2,143.4l25.1-30.2c1.4-1.7,3-3,3-5.6c0-3.5-2.9-5.6-5.6-5.6H80.9V62.5c0-3.1-2.5-5.6-5.6-5.6H64
	c-3.1,0-5.6,2.5-5.6,5.6v39.4H41.5c-2.7,0-5.6,2.1-5.6,5.6c0,2.6,1.6,3.9,3,5.6L64,143.4c1.8,2.2,3.1,3.5,5.6,3.5
	S73.5,145.6,75.2,143.4z"/>
</svg>
