<?xml version="1.0" standalone="no"?>
<!DOCTYPE svg PUBLIC "-//W3C//DTD SVG 20010904//EN"
 "http://www.w3.org/TR/2001/REC-SVG-20010904/DTD/svg10.dtd">
<svg version="1.0" xmlns="http://www.w3.org/2000/svg"
 width="700.000000pt" height="700.000000pt" viewBox="0 0 700.000000 700.000000"
 preserveAspectRatio="xMidYMid meet">
<metadata>
Created by potrace 1.11, written by Peter Selinger 2001-2013
</metadata>
<g transform="translate(0.000000,700.000000) scale(0.100000,-0.100000)"
fill="#000000" stroke="none">
<path d="M2770 6711 c-69 -22 -119 -66 -231 -202 -21 -24 -76 -91 -124 -149
-48 -58 -97 -116 -108 -130 -23 -27 -202 -242 -227 -274 -8 -10 -20 -23 -25
-30 -6 -6 -65 -76 -131 -156 -66 -80 -210 -252 -319 -384 -239 -285 -280 -339
-294 -387 -36 -119 31 -256 149 -304 41 -17 84 -19 450 -21 223 -1 407 -2 410
-3 3 -1 6 -416 6 -923 l0 -923 23 -50 c27 -60 62 -99 116 -128 38 -20 57 -21
348 -25 270 -3 316 -1 363 14 82 26 153 104 168 185 3 13 5 434 5 936 l1 912
423 3 c414 3 423 3 463 25 87 46 141 144 136 242 -4 82 -24 113 -248 376 -23
28 -236 284 -474 570 -238 286 -442 531 -453 545 -26 29 -105 126 -127 154
-27 35 -75 78 -111 103 -40 26 -143 39 -189 24z"/>
<path d="M3920 4379 c-102 -6 -143 -23 -202 -85 -65 -70 -62 -14 -63 -1034
l-1 -925 -419 -5 c-416 -5 -420 -5 -465 -28 -123 -64 -173 -207 -116 -327 14
-27 42 -71 63 -96 21 -25 73 -88 116 -140 43 -52 96 -114 116 -139 21 -25 96
-115 167 -201 71 -86 235 -284 364 -440 129 -156 237 -286 240 -289 3 -3 48
-57 99 -120 189 -231 230 -263 346 -264 101 -1 157 32 255 154 30 38 588 709
684 825 37 44 338 406 391 470 19 22 63 75 99 118 88 107 101 136 100 224 -2
108 -49 179 -149 225 -49 22 -57 22 -457 22 l-408 1 0 90 c0 50 -2 470 -3 935
l-2 845 -23 44 c-31 57 -75 99 -130 122 -40 17 -73 20 -276 22 -127 1 -274 -1
-326 -4z"/>
</g>
</svg>
